<?xml version="1.0" encoding="UTF-8"?>
<svg id="Layer_1" xmlns="http://www.w3.org/2000/svg" version="1.1" viewBox="0 0 95 83">
  <!-- Generator: Adobe Illustrator 29.1.0, SVG Export Plug-In . SVG Version: 2.1.0 Build 142)  -->
  <defs>
    <style>
      .st0 {
        fill: #261447;
      }

      .st1 {
        fill: #fff;
      }

      .st2 {
        fill: #23c9ff;
      }
    </style>
  </defs>
  <path class="st0" d="M66.7,0H28.3c-2.8,0-5.5,1.5-6.9,4L2.3,37.2c-1.4,2.5-1.4,5.5,0,7.9l19.2,33.3c1.4,2.5,4,4,6.9,4h38.3c2.8,0,5.5-1.5,6.9-4l19.2-33.3c1.4-2.5,1.4-5.5,0-7.9L73.5,4C72.1,1.5,69.5,0,66.7,0Z"/>
  <g>
    <path class="st2" d="M62.8,24.3c0,5.8-3.2,10.8-7.9,13.4-.3-.8-.8-1.5-1.4-2.1-1.4-1.5-3.4-2.2-6-2.2s-4.7.7-6,2.2c-.6.6-1,1.3-1.3,2.1-4.7-2.6-7.9-7.6-7.9-13.4,0-8.4,6.8-15.3,15.3-15.3s15.3,6.8,15.3,15.3h0Z"/>
    <path class="st1" d="M54.4,42v24.5c0,2.4-.6,4.3-1.8,5.5-1.2,1.3-2.9,1.9-5.1,1.9s-4-.6-5.1-1.9c-1.2-1.3-1.7-3.1-1.7-5.5v-24.5c0-1.4.2-2.7.6-3.7.3-.7.7-1.3,1.1-1.8,1.2-1.3,2.9-1.9,5.1-1.9s3.9.6,5.1,1.9c.5.5.9,1.1,1.2,1.8.4,1,.7,2.3.7,3.7h0Z"/>
  </g>
</svg>